<?xml version="1.0" standalone="no"?>
<!DOCTYPE svg PUBLIC "-//W3C//DTD SVG 20010904//EN"
 "http://www.w3.org/TR/2001/REC-SVG-20010904/DTD/svg10.dtd">
<svg version="1.0" xmlns="../../../../../../../external.html?link=http://www.w3.org/2000/svg"
 width="512.000000pt" height="512.000000pt" viewBox="0 0 512.000000 512.000000"
 preserveAspectRatio="xMidYMid meet">
<metadata>
Created by potrace 1.11, written by Peter Selinger 2001-2013
</metadata>
<g transform="translate(0.000000,512.000000) scale(0.100000,-0.100000)"
fill="#000000" stroke="none">
<path d="M261 5083 c-81 -48 -176 -143 -224 -224 l-37 -64 0 -2235 0 -2235 37
-64 c48 -81 143 -176 224 -224 l64 -37 2235 0 2235 0 64 37 c81 48 176 143
223 224 l38 64 0 2235 0 2235 -37 64 c-48 81 -143 176 -224 224 l-64 37 -2235
0 -2235 0 -64 -37z m2474 -1158 c15 -25 25 -50 22 -57 -2 -7 -14 10 -27 37
-12 28 -24 53 -27 58 -2 4 -2 7 1 7 3 0 17 -20 31 -45z m186 -40 c33 -66 43
-99 45 -143 1 -31 9 -79 18 -106 16 -48 14 -86 -4 -86 -5 0 -11 26 -15 58 -4
31 -12 70 -18 87 -6 16 -10 40 -9 52 2 13 -4 33 -12 45 -9 12 -13 31 -10 45 4
14 -2 35 -15 56 -11 19 -18 37 -14 40 3 4 2 7 -4 7 -6 0 -13 7 -17 15 -3 8 -1
15 4 15 5 0 28 -38 51 -85z m186 -60 c9 -27 8 -32 -3 -28 -8 3 -14 14 -14 25
0 11 -11 29 -25 40 -14 11 -25 29 -25 41 0 20 3 19 29 -11 15 -19 33 -49 38
-67z m-771 49 c45 -19 174 -146 174 -171 0 -12 -18 0 -58 40 -32 31 -63 57
-69 57 -6 0 -13 9 -16 20 -3 11 -21 29 -41 41 -32 19 -43 29 -32 29 2 0 21 -7
42 -16z m437 -77 l27 -32 -7 -220 c-10 -306 -10 -704 1 -1146 l9 -376 -29 -41
c-36 -52 -59 -53 -106 -4 l-36 37 -6 140 c-17 383 -36 589 -52 572 -3 -2 -25
-76 -50 -163 -25 -87 -53 -167 -62 -178 -15 -16 -26 -17 -87 -12 -48 5 -76 12
-88 25 -20 19 -49 124 -67 236 -6 39 -17 76 -24 83 -25 25 -35 -72 -39 -388
l-5 -304 -43 -37 c-42 -35 -45 -36 -71 -23 -60 31 -63 47 -63 289 1 327 23
861 36 883 9 14 8 37 -5 99 -12 59 -16 136 -16 299 l0 219 30 36 c36 45 103
61 126 32 62 -81 63 -86 79 -223 23 -190 136 -670 159 -670 11 0 46 132 56
212 6 48 17 105 25 127 8 22 19 78 25 123 21 148 78 376 105 417 l25 38 63 -9
c52 -8 67 -14 90 -41z m-538 3 c10 -11 38 -30 62 -42 24 -12 73 -46 109 -76
68 -56 95 -95 78 -112 -7 -7 -23 8 -47 43 -20 29 -47 62 -59 73 -40 33 -110
78 -150 94 -29 12 -46 40 -24 40 7 0 21 -9 31 -20z m940 -90 c-12 -19 -26 -10
-41 25 -21 50 -17 54 17 17 16 -18 27 -37 24 -42z m99 54 c9 -24 7 -28 -9 -14
-17 14 -20 30 -6 30 5 0 12 -7 15 -16z m-410 -81 c9 -26 16 -70 16 -99 0 -30
8 -70 20 -95 14 -31 19 -65 19 -114 0 -60 -2 -66 -11 -45 -6 14 -18 40 -26 57
-8 18 -14 45 -14 60 0 46 -19 164 -32 197 -6 17 -11 38 -10 46 1 8 2 23 3 33
2 29 18 11 35 -40z m196 -13 c0 -13 -1 -13 -10 0 -5 8 -10 22 -10 30 0 13 1
13 10 0 5 -8 10 -22 10 -30z m852 -23 c21 -26 21 -36 8 -422 -28 -805 -28
-837 -15 -876 11 -29 11 -57 2 -137 -15 -138 -22 -132 165 -132 128 0 154 -3
188 -20 47 -24 62 -63 52 -140 -7 -51 -10 -56 -48 -77 -42 -23 -42 -23 -260
-13 l-219 11 -28 28 -28 27 -10 460 c-8 338 -8 567 1 869 l12 410 26 23 c24
21 33 23 82 18 40 -5 60 -13 72 -29z m-540 -20 c44 -29 66 -53 98 -106 l41
-69 2 -639 2 -638 -28 -72 c-23 -58 -40 -83 -86 -125 -68 -63 -117 -82 -193
-72 -131 16 -233 135 -259 300 -9 60 -9 89 -1 113 6 17 14 77 18 134 3 56 12
124 20 151 19 68 18 103 -10 236 -16 76 -26 169 -31 275 -6 149 -5 164 15 215
15 39 21 71 18 109 l-3 55 75 79 c41 44 83 83 95 88 11 5 54 7 95 6 66 -3 82
-8 132 -40z m-1447 22 c12 -18 -2 -20 -36 -5 l-34 14 32 1 c17 1 35 -4 38 -10z
m428 -78 c81 -82 107 -124 107 -169 0 -7 -27 20 -60 60 -33 40 -80 93 -105
118 -40 40 -59 80 -37 80 4 0 47 -40 95 -89z m-587 5 c27 -8 70 -18 96 -21 47
-7 88 -28 77 -40 -9 -8 -89 12 -179 46 -80 30 -76 39 6 15z m-47 -106 c20 -5
68 -17 106 -26 76 -18 125 -39 125 -54 0 -14 -9 -12 -55 10 -22 11 -46 19 -53
20 -7 0 -34 6 -60 14 -26 8 -73 18 -105 21 -31 4 -55 11 -52 16 8 12 48 12 94
-1z m607 -37 c78 -80 104 -122 104 -165 0 -21 -4 -38 -8 -38 -5 0 -18 21 -30
48 -12 26 -46 75 -77 110 -82 94 -73 131 11 45z m-463 -114 c142 -64 123 -82
-24 -24 -72 28 -102 35 -157 34 -120 -1 -154 -4 -264 -25 -30 -5 -30 15 -1 22
15 3 39 10 53 14 49 17 67 19 193 15 118 -4 133 -6 200 -36z m967 -8 c0 -22
11 -66 24 -98 24 -55 72 -311 61 -321 -3 -3 -5 2 -5 12 0 9 -8 33 -19 54 -10
20 -21 58 -25 83 -4 26 -20 84 -36 130 -28 78 -39 157 -23 172 15 16 23 5 23
-32z m766 -161 c9 -41 23 -95 30 -119 8 -25 14 -61 14 -80 l0 -36 -18 30 c-10
17 -22 50 -26 75 -18 110 -24 137 -34 162 -6 15 -12 51 -13 80 -3 107 0 101
47 -112z m-1248 56 c27 -58 52 -166 38 -166 -11 0 -46 79 -61 137 -8 32 -18
65 -21 75 -3 10 -1 18 4 18 6 0 24 -29 40 -64z m-1205 0 c54 -37 70 -85 75
-215 2 -64 8 -126 14 -138 7 -15 7 -40 -1 -85 -6 -38 -11 -190 -11 -372 l0
-307 -32 -43 c-27 -35 -42 -46 -81 -55 -73 -17 -252 -15 -266 3 -9 11 -11 60
-9 170 3 153 3 155 31 183 33 36 34 41 3 53 -18 6 -26 19 -30 42 -11 74 -23
509 -15 550 4 23 8 75 9 114 0 56 4 77 21 97 20 26 22 27 141 25 104 -2 125
-5 151 -22z m714 -12 c103 -35 113 -41 113 -66 0 -19 -1 -20 -17 -6 -10 9 -42
19 -70 23 -29 4 -64 15 -77 26 -13 10 -30 19 -37 19 -14 0 -74 18 -104 32 -47
21 120 -3 192 -28z m-245 -6 c55 3 58 1 73 -28 8 -16 22 -30 30 -30 8 0 15 -6
15 -13 0 -29 -37 -46 -123 -58 -49 -7 -95 -19 -103 -26 -18 -19 -18 -281 0
-333 15 -40 33 -48 121 -49 55 -1 62 -4 76 -28 20 -34 14 -95 -10 -117 -11
-10 -49 -19 -101 -23 l-84 -8 -9 -35 c-6 -22 -5 -59 2 -101 6 -36 8 -101 5
-145 -8 -103 1 -116 71 -104 28 5 74 9 103 9 45 1 57 -3 77 -25 31 -33 32 -71
2 -105 -22 -27 -24 -27 -185 -32 l-162 -6 -14 27 c-23 46 -26 117 -24 508 1
208 1 426 0 483 -3 118 16 205 51 234 18 14 32 16 77 10 30 -4 81 -6 112 -5z
m236 -137 c66 -34 88 -55 98 -96 l7 -30 -22 24 c-11 13 -21 27 -21 31 0 9 -79
60 -94 60 -23 0 -76 22 -76 31 0 18 52 8 108 -20z m-140 -77 c51 -14 73 -28
126 -78 35 -34 75 -79 90 -100 31 -46 36 -82 6 -43 -11 14 -20 29 -20 33 0 12
-42 54 -54 54 -6 0 -32 24 -57 52 -45 51 -48 53 -101 54 -30 1 -63 6 -74 11
-10 6 -36 13 -57 17 -23 4 -35 11 -31 18 9 14 89 5 172 -18z m1121 -75 c5 -30
23 -96 40 -148 45 -137 58 -228 52 -345 -2 -29 -31 0 -31 31 0 14 -6 39 -14
56 -8 18 -17 61 -20 97 -8 97 -13 127 -35 184 -16 43 -26 135 -22 191 2 26 23
-18 30 -66z m-1154 -37 c53 -15 69 -26 132 -90 39 -41 77 -88 84 -106 7 -17
21 -42 31 -55 10 -13 18 -35 18 -50 0 -25 -1 -25 -23 10 -89 145 -153 225
-211 263 -32 22 -50 26 -107 26 -64 0 -80 6 -62 23 8 9 57 1 138 -21z m1280
-105 l5 -52 -13 55 c-8 30 -19 65 -26 78 -6 12 -9 28 -5 34 10 16 32 -51 39
-115z m-1653 61 c-7 -7 -12 -8 -12 -2 0 14 12 26 19 19 2 -3 -1 -11 -7 -17z
m2258 -76 c0 -13 5 -33 11 -44 6 -12 11 -46 10 -76 0 -30 6 -74 14 -99 8 -24
15 -58 15 -76 l-1 -32 -14 25 c-8 14 -14 36 -15 50 0 15 -4 30 -9 35 -9 10
-20 102 -24 207 -2 32 1 52 5 45 4 -7 8 -22 8 -35z m-1872 8 c69 -30 67 -44
-4 -20 -31 11 -78 22 -105 26 -27 4 -49 11 -49 17 0 16 101 2 158 -23z m-388
-50 c0 -5 -8 -10 -17 -10 -15 0 -16 2 -3 10 19 12 20 12 20 0z m1667 -32 c-3
-8 -6 -5 -6 6 -1 11 2 17 5 13 3 -3 4 -12 1 -19z m-1191 -43 c24 -14 48 -34
54 -45 13 -23 -2 -27 -20 -5 -7 8 -19 15 -27 15 -21 0 -74 40 -68 51 9 13 13
12 61 -16z m89 -95 c10 -11 16 -20 13 -20 -3 0 -13 9 -23 20 -10 11 -16 20
-13 20 3 0 13 -9 23 -20z m702 -61 c6 -30 11 -79 11 -109 l1 -55 -19 65 c-29
97 -36 164 -19 158 8 -2 19 -29 26 -59z m-791 20 c10 -12 37 -29 59 -39 52
-23 85 -59 96 -107 17 -73 8 -78 -25 -13 -35 67 -84 115 -150 146 -19 10 -33
21 -30 26 9 14 30 9 50 -13z m440 -110 c8 -39 16 -115 19 -168 2 -53 9 -109
15 -126 22 -58 9 -648 -13 -609 -7 12 -11 95 -10 219 0 110 -2 204 -5 209 -3
6 -7 47 -8 92 -1 45 -7 106 -13 136 -6 29 -12 120 -15 203 -5 160 3 172 30 44z
m-458 12 c54 -27 100 -90 116 -158 8 -32 19 -71 25 -86 22 -57 13 -235 -19
-379 -16 -73 -30 -143 -30 -155 0 -26 -10 -53 -19 -53 -11 0 -2 96 17 180 21
96 25 461 5 481 -7 7 -13 21 -13 30 0 20 -109 139 -127 139 -7 0 -17 -10 -24
-21 -15 -29 1 -62 40 -85 42 -25 90 -149 76 -194 -10 -32 -23 -23 -30 23 -13
79 -58 167 -86 167 -4 0 -19 -20 -33 -44 -24 -41 -56 -67 -56 -46 0 5 14 37
32 71 25 47 29 64 21 77 -12 21 -55 27 -93 13 -16 -5 -32 -6 -34 -2 -11 17 15
33 67 40 32 4 60 11 64 14 12 13 64 7 101 -12z m1097 -163 c15 -133 18 -153
35 -238 5 -25 12 -90 14 -145 3 -55 10 -116 16 -135 13 -43 24 -294 11 -265
-15 35 -32 116 -26 126 4 5 2 24 -4 42 -8 27 -28 160 -36 247 -2 14 -11 70
-20 125 -20 116 -32 420 -15 393 6 -9 17 -77 25 -150z m-345 85 c11 -49 21
-267 20 -448 0 -27 6 -72 14 -100 8 -27 17 -102 21 -165 3 -63 8 -157 13 -207
8 -96 -2 -130 -13 -45 -3 26 -10 63 -15 82 -5 19 -12 60 -14 90 -8 76 -23 167
-36 215 -12 40 -14 62 -9 80 2 6 -3 49 -10 96 -9 56 -11 106 -6 145 5 32 8 62
7 65 -1 4 -4 61 -7 128 -5 100 -4 121 8 121 9 0 19 -21 27 -57z m1080 -27 c0
-13 7 -40 15 -59 8 -20 15 -56 15 -79 0 -24 5 -59 10 -79 13 -47 28 -129 24
-129 -9 0 -37 82 -49 145 -8 39 -24 102 -36 140 -12 39 -23 86 -26 105 l-4 35
25 -28 c14 -15 26 -39 26 -51z m-1251 -42 c6 -41 11 -96 11 -122 0 -32 9 -66
30 -107 27 -52 30 -67 24 -113 -5 -42 -2 -61 12 -88 17 -32 18 -36 3 -47 -34
-26 -52 -81 -60 -186 -4 -57 -11 -107 -16 -112 -12 -12 -14 162 -3 288 11 119
2 245 -24 358 -8 33 -17 100 -21 150 -6 88 -6 89 13 72 14 -12 23 -42 31 -93z
m84 -16 c4 -51 9 -114 13 -140 5 -34 3 -48 -5 -48 -15 0 -16 6 -30 120 -7 52
-15 115 -18 139 -5 41 -4 42 14 32 17 -9 21 -24 26 -103z m169 -60 c3 -26 2
-45 -3 -42 -5 3 -9 26 -9 51 0 58 6 53 12 -9z m-910 -30 c-15 -15 -26 -4 -18
18 5 13 9 15 18 6 9 -9 9 -15 0 -24z m1828 -102 c0 -2 6 -41 14 -87 8 -46 17
-108 20 -137 4 -29 9 -60 12 -70 2 -9 -7 7 -21 37 -14 29 -28 74 -32 100 -3
25 -11 57 -18 71 -13 27 -2 90 15 90 6 0 10 -2 10 -4z m-480 -186 c7 -41 15
-120 20 -175 5 -55 13 -118 19 -140 5 -22 9 -61 8 -88 -2 -85 -27 -31 -42 93
-8 62 -19 127 -24 144 -11 34 -30 172 -37 276 l-4 65 24 -50 c14 -27 30 -84
36 -125z m-365 -5 c4 -38 10 -151 15 -250 5 -99 14 -196 20 -215 13 -43 13
-98 1 -84 -13 13 -59 254 -63 329 -1 11 -7 72 -15 135 -8 63 -16 144 -19 180
l-6 65 30 -45 c24 -35 32 -61 37 -115z m-532 91 c16 -42 18 -133 3 -175 -14
-38 -14 -56 -4 -127 13 -89 11 -97 -36 -161 -19 -26 -25 -30 -30 -17 -3 8 -1
25 5 36 6 11 11 41 11 67 0 25 6 73 13 107 7 36 10 98 7 156 -2 53 -2 104 1
112 8 20 23 21 30 2z m-128 -92 c-1 -115 -20 -255 -40 -294 -8 -16 -18 -30
-20 -30 -5 0 0 65 16 180 10 81 15 134 18 208 1 22 5 32 14 29 8 -2 12 -30 12
-93z m-225 62 c0 -7 -4 -26 -10 -42 -5 -16 -11 -58 -14 -94 -4 -67 -22 -120
-39 -120 -6 0 -7 18 -4 43 13 88 35 206 42 217 9 14 25 12 25 -4z m990 -35 c0
-27 5 -62 11 -78 6 -15 13 -77 16 -138 2 -60 13 -155 24 -211 19 -95 18 -141
-2 -128 -5 3 -9 20 -9 38 0 17 -5 37 -11 43 -25 25 -44 231 -24 263 3 6 -2 22
-13 38 -14 20 -18 40 -16 76 1 26 -2 60 -7 74 -13 33 -4 72 16 72 11 0 15 -12
15 -49z m641 12 c6 -16 15 -66 21 -113 5 -47 14 -93 19 -102 12 -23 12 -51 0
-43 -18 10 -44 108 -43 161 0 44 -3 54 -19 59 -13 4 -19 16 -19 36 0 38 27 39
41 2z m-279 -10 c23 -27 35 -77 48 -203 7 -63 16 -128 21 -144 5 -16 9 -47 9
-70 l0 -41 -20 44 c-11 24 -20 57 -20 73 0 17 -6 44 -14 61 -8 18 -17 48 -19
67 -3 19 -11 58 -17 85 -13 54 -19 145 -9 145 3 0 13 -8 21 -17z m136 -22 c8
-5 19 -51 27 -117 7 -60 18 -127 24 -148 12 -48 -2 -85 -14 -40 -5 16 -7 33
-7 37 1 4 -3 18 -10 30 -6 12 -15 38 -19 57 -4 19 -15 63 -24 97 -22 79 -14
108 23 84z m-813 -301 c3 -56 8 -106 11 -111 7 -13 -8 -61 -16 -52 -5 4 -10
73 -13 152 -5 162 9 171 18 11z m-628 -37 c-3 -10 -5 -4 -5 12 0 17 2 24 5 18
2 -7 2 -21 0 -30z m420 -85 c-3 -8 -6 -5 -6 6 -1 11 2 17 5 13 3 -3 4 -12 1
-19z m703 -24 c0 -8 -4 -12 -10 -9 -5 3 -10 10 -10 16 0 5 5 9 10 9 6 0 10 -7
10 -16z"/>
<path d="M3144 3418 c-10 -18 -23 -76 -30 -128 -9 -79 -9 -102 3 -135 12 -34
13 -76 3 -277 -7 -131 -9 -255 -6 -275 4 -21 2 -110 -4 -197 -10 -156 -9 -160
13 -199 19 -34 31 -44 81 -60 l60 -20 26 29 c44 50 49 120 53 690 l4 520 -31
36 c-27 31 -39 36 -93 43 l-62 7 -17 -34z m42 -75 c9 -21 23 -65 30 -98 7 -33
22 -87 34 -120 12 -33 19 -71 17 -84 -3 -14 1 -42 9 -64 8 -22 14 -63 14 -92
0 -29 4 -76 10 -105 5 -29 7 -57 4 -62 -10 -16 -43 91 -49 155 -2 32 -7 62
-10 66 -2 5 -12 55 -20 112 -8 57 -18 111 -22 119 -21 47 -51 210 -39 210 3 0
13 -17 22 -37z m108 1 c10 -25 7 -34 -9 -28 -8 4 -15 15 -15 25 0 23 16 25 24
3z m15 -107 c1 -5 -3 -5 -9 -2 -5 3 -10 16 -9 28 0 21 1 21 9 2 5 -11 9 -24 9
-28z m-131 -333 c7 -54 20 -120 28 -147 9 -26 22 -87 29 -135 8 -48 20 -114
28 -147 30 -123 39 -199 29 -225 -6 -14 -11 -20 -12 -15 -1 6 -4 21 -6 35 -3
14 -6 34 -8 46 -1 11 -5 24 -8 30 -8 15 -22 68 -19 78 3 12 -25 143 -49 226
-33 118 -42 164 -47 264 -5 82 -4 98 8 94 10 -3 18 -36 27 -104z m-20 -459 c7
-14 12 -35 12 -45 0 -10 6 -43 14 -72 7 -29 17 -77 21 -105 6 -44 4 -53 -9
-53 -21 0 -57 124 -64 222 -5 81 5 100 26 53z"/>
<path d="M940 3075 c-10 -12 -10 -39 0 -132 9 -85 11 -206 6 -433 -3 -173 -3
-328 2 -345 8 -28 12 -30 60 -33 64 -4 90 9 97 51 3 17 7 192 9 387 2 195 7
374 11 397 11 63 -17 97 -91 112 -73 14 -79 14 -94 -4z"/>
</g>
</svg>
